<svg width="51" height="51" viewBox="0 0 51 51" fill="none" xmlns="http://www.w3.org/2000/svg">
<circle opacity="0.6" cx="26" cy="25" r="23.5" stroke="#6F1FEF" stroke-width="3"/>
<path d="M27.7656 30.0938C27.7656 31.1458 27.875 32.0208 28.0938 32.7188C28.3229 33.4167 28.6094 33.974 28.9531 34.3906C29.2969 34.7969 29.6667 35.0833 30.0625 35.25C30.4583 35.4167 30.8281 35.5 31.1719 35.5C31.4323 35.5 31.6719 35.4688 31.8906 35.4062C32.1094 35.3333 32.3021 35.2552 32.4688 35.1719C32.6354 35.0781 32.776 35 32.8906 34.9375C33.0052 34.8646 33.0938 34.8281 33.1562 34.8281C33.25 34.8281 33.3125 34.8438 33.3438 34.875C33.3854 34.9062 33.4323 34.9635 33.4844 35.0469L34.0312 35.8906C34.0833 35.974 34.1094 36.0469 34.1094 36.1094C34.1094 36.1823 34.0885 36.2396 34.0469 36.2812C34.0052 36.3229 33.9635 36.3594 33.9219 36.3906C33.5781 36.6302 33.1562 36.8854 32.6562 37.1562C32.1562 37.4167 31.5729 37.6562 30.9062 37.875C30.25 38.0938 29.5156 38.276 28.7031 38.4219C27.8906 38.5677 27.0052 38.6406 26.0469 38.6406C25.2656 38.6406 24.4844 38.5781 23.7031 38.4531C22.9219 38.3281 22.1719 38.125 21.4531 37.8438C20.7448 37.5625 20.0833 37.2031 19.4688 36.7656C18.8542 36.3177 18.3177 35.7812 17.8594 35.1562C17.4115 34.5208 17.0573 33.7865 16.7969 32.9531C16.5365 32.1094 16.4062 31.1562 16.4062 30.0938C16.4062 29.0312 16.5365 28.0833 16.7969 27.25C17.0573 26.4062 17.4115 25.6719 17.8594 25.0469C18.3177 24.4115 18.8542 23.875 19.4688 23.4375C20.0833 22.9896 20.7448 22.625 21.4531 22.3438C22.1719 22.0625 22.9219 21.8594 23.7031 21.7344C24.4844 21.6094 25.2656 21.5469 26.0469 21.5469C26.901 21.5469 27.724 21.6146 28.5156 21.75C29.3073 21.875 30.0365 22.0469 30.7031 22.2656C31.3802 22.474 31.9844 22.7083 32.5156 22.9688C33.0573 23.2188 33.4948 23.4688 33.8281 23.7188C33.8698 23.75 33.9115 23.7865 33.9531 23.8281C33.9948 23.8698 34.0156 23.9271 34.0156 24C34.0156 24.0729 33.9896 24.1458 33.9375 24.2188L33.3906 25.0625C33.3385 25.1458 33.2917 25.2031 33.25 25.2344C33.2188 25.2656 33.1562 25.2812 33.0625 25.2812C33 25.2812 32.9167 25.25 32.8125 25.1875C32.7083 25.125 32.5781 25.0573 32.4219 24.9844C32.2656 24.901 32.0833 24.8281 31.875 24.7656C31.6667 24.6927 31.4323 24.6562 31.1719 24.6562C30.8281 24.6562 30.4583 24.7448 30.0625 24.9219C29.6667 25.0885 29.2969 25.3802 28.9531 25.7969C28.6094 26.2135 28.3229 26.7708 28.0938 27.4688C27.875 28.1667 27.7656 29.0417 27.7656 30.0938Z" fill="url(#paint0_linear_13_162)"/>
<defs>
<linearGradient id="paint0_linear_13_162" x1="25" y1="1" x2="25" y2="51" gradientUnits="userSpaceOnUse">
<stop stop-color="#6F1FEF"/>
<stop offset="1" stop-color="#900CBE"/>
</linearGradient>
</defs>
</svg>
