<svg width="60" height="60" viewBox="0 0 60 60" fill="none" xmlns="http://www.w3.org/2000/svg">
<circle cx="30" cy="30" r="30" fill="#FF8300"/>
<path d="M15.1581 37.7488C14.4728 37.7488 13.7832 37.6889 13.0893 37.569C12.404 37.449 11.7444 37.2434 11.1104 36.9522C10.4765 36.6609 9.88545 36.2754 9.3372 35.7957C8.78894 35.3074 8.30922 34.7035 7.89803 33.9839C7.49541 33.2558 7.17845 32.3991 6.94716 31.414C6.71587 30.4203 6.60022 29.2681 6.60022 27.9574C6.60022 26.6553 6.71587 25.5074 6.94716 24.5137C7.17845 23.52 7.49541 22.6634 7.89803 21.9438C8.30922 21.2156 8.78894 20.6117 9.3372 20.132C9.88545 19.6523 10.4765 19.271 11.1104 18.9884C11.7444 18.6971 12.404 18.4915 13.0893 18.3716C13.7832 18.2516 14.4728 18.1917 15.1581 18.1917C15.8434 18.1917 16.533 18.2516 17.2269 18.3716C17.9208 18.4915 18.5847 18.6971 19.2186 18.9884C19.8525 19.271 20.4436 19.6523 20.9918 20.132C21.5401 20.6117 22.0155 21.2156 22.4181 21.9438C22.8208 22.6634 23.1377 23.52 23.369 24.5137C23.6003 25.5074 23.716 26.6553 23.716 27.9574C23.716 29.2595 23.6003 30.4074 23.369 31.4011C23.1377 32.3948 22.8208 33.2558 22.4181 33.9839C22.0155 34.7035 21.5401 35.3074 20.9918 35.7957C20.4436 36.2754 19.8525 36.6609 19.2186 36.9522C18.5847 37.2434 17.9208 37.449 17.2269 37.569C16.533 37.6889 15.8434 37.7488 15.1581 37.7488ZM16.3146 27.9574C16.3146 29.0282 16.3917 29.9234 16.5458 30.643C16.7086 31.3626 16.9228 31.9408 17.1883 32.3777C17.4539 32.8146 17.7494 33.1273 18.075 33.3157C18.409 33.4956 18.7517 33.5856 19.1029 33.5856C19.4542 33.5856 19.7968 33.4956 20.1309 33.3157C20.465 33.1273 20.7605 32.8146 21.0175 32.3777C21.2831 31.9408 21.493 31.3626 21.6472 30.643C21.8099 29.9234 21.8913 29.0282 21.8913 27.9574C21.8913 26.8866 21.8099 25.9914 21.6472 25.2718C21.493 24.5523 21.2831 23.974 21.0175 23.5371C20.7605 23.1002 20.465 22.7919 20.1309 22.612C19.7968 22.4235 19.4542 22.3293 19.1029 22.3293C18.7517 22.3293 18.409 22.4235 18.075 22.612C17.7494 22.7919 17.4539 23.1002 17.1883 23.5371C16.9228 23.974 16.7086 24.5523 16.5458 25.2718C16.3917 25.9914 16.3146 26.8866 16.3146 27.9574Z" fill="#5F0097"/>
<path d="M44.9564 37.6974C44.3139 37.6974 43.6715 37.6461 43.029 37.5433C42.3865 37.4405 41.7697 37.2777 41.1786 37.055C40.5961 36.8322 40.0521 36.541 39.5467 36.1812C39.0413 35.8214 38.6001 35.3802 38.2232 34.8577C37.8549 34.3351 37.5636 33.7312 37.3494 33.0459C37.1353 32.352 37.0282 31.5596 37.0282 30.6687C37.0282 29.7949 37.1353 29.0154 37.3494 28.3301C37.5636 27.6362 37.8549 27.028 38.2232 26.5054C38.6001 25.9829 39.0413 25.5417 39.5467 25.1819C40.0521 24.8135 40.5961 24.518 41.1786 24.2953C41.7697 24.064 42.3865 23.8969 43.029 23.7941C43.6715 23.6913 44.3139 23.6399 44.9564 23.6399C45.5475 23.6399 46.1514 23.6785 46.7682 23.7556C47.3936 23.8241 47.9975 23.9569 48.58 24.1539C49.1711 24.3424 49.7236 24.6037 50.2376 24.9377C50.7602 25.2633 51.2142 25.683 51.5997 26.197C51.9937 26.711 52.3021 27.3278 52.5249 28.0474C52.7562 28.7584 52.8718 29.5979 52.8718 30.5659C52.8718 31.5596 52.7604 32.4291 52.5377 33.1744C52.315 33.9111 52.0066 34.545 51.6125 35.0761C51.2271 35.5987 50.7773 36.0313 50.2633 36.3739C49.7493 36.7166 49.1968 36.9864 48.6057 37.1835C48.0232 37.3719 47.4193 37.5047 46.7939 37.5818C46.1686 37.6589 45.5561 37.6974 44.9564 37.6974ZM48.9013 34.6135C49.1668 34.6135 49.4281 34.5579 49.6851 34.4465C49.9507 34.3266 50.1819 34.1167 50.379 33.8169C50.5846 33.517 50.7473 33.1058 50.8673 32.5833C50.9958 32.0522 51.06 31.3797 51.06 30.5659C51.06 29.7949 50.9958 29.161 50.8673 28.6641C50.7473 28.1673 50.5846 27.7775 50.379 27.4948C50.1734 27.2036 49.9421 27.0023 49.6851 26.8909C49.4281 26.7795 49.1668 26.7238 48.9013 26.7238C48.6957 26.7238 48.4644 26.7667 48.2074 26.8523C47.959 26.938 47.7234 27.1222 47.5007 27.4049C47.2865 27.679 47.1066 28.0773 46.961 28.5999C46.8153 29.1139 46.7425 29.8035 46.7425 30.6687C46.7425 31.5339 46.8025 32.2278 46.9224 32.7503C47.0423 33.2729 47.2008 33.6712 47.3979 33.9454C47.5949 34.2195 47.8219 34.3994 48.0789 34.485C48.3444 34.5707 48.6186 34.6135 48.9013 34.6135Z" fill="#5F0097"/>
<path d="M25.6819 17.9861C25.6819 17.6948 25.7076 17.4378 25.759 17.2151C25.8104 16.9838 25.909 16.7953 26.0546 16.6497C26.2002 16.5041 26.4015 16.3927 26.6585 16.3156C26.9155 16.2385 27.2496 16.2 27.6608 16.2H28.5603C28.9543 16.2 29.2713 16.2385 29.5111 16.3156C29.751 16.3842 29.9395 16.4912 30.0765 16.6369C30.2136 16.7825 30.3035 16.9667 30.3464 17.1894C30.3978 17.4121 30.4235 17.6734 30.4235 17.9732V35.4873C30.4235 35.7786 30.3978 36.0356 30.3464 36.2583C30.295 36.4724 30.2007 36.6566 30.0637 36.8108C29.9266 36.9565 29.7339 37.0678 29.4854 37.1449C29.2456 37.2134 28.9286 37.2477 28.5346 37.2477H27.6608C27.2496 37.2477 26.9155 37.2092 26.6585 37.1321C26.4015 37.055 26.2002 36.9436 26.0546 36.798C25.909 36.6523 25.8104 36.4682 25.759 36.2454C25.7076 36.0227 25.6819 35.7614 25.6819 35.4616V17.9861Z" fill="#5F0097"/>
<path fill-rule="evenodd" clip-rule="evenodd" d="M34.1771 47.098C34.6911 46.7125 35.1109 46.2585 35.4364 45.736L33.6503 44.3996C33.6503 44.6652 33.5946 44.9264 33.4833 45.1834C33.3719 45.4404 33.1706 45.6717 32.8793 45.8773C32.5966 46.0829 32.2069 46.2457 31.71 46.3656C31.2131 46.4941 30.5792 46.5583 29.8083 46.5583C28.9944 46.5583 28.322 46.4941 27.7909 46.3656C27.2683 46.2457 26.8571 46.0829 26.5573 45.8773C26.2575 45.6803 26.0476 45.449 25.9277 45.1834C25.8163 44.9264 25.7606 44.6652 25.7606 44.3996L24.0002 45.7617C24.3429 46.2756 24.7755 46.7254 25.298 47.1109C25.8291 47.5049 26.4631 47.8133 27.1998 48.036C27.9451 48.2588 28.8145 48.3701 29.8083 48.3701C30.7763 48.3701 31.6158 48.2545 32.3268 48.0232C33.0464 47.8005 33.6631 47.4921 34.1771 47.098Z" fill="#5F0097"/>
</svg>
