<svg width="50" height="50" viewBox="0 0 50 50" fill="none" xmlns="http://www.w3.org/2000/svg">
<circle opacity="0.6" cx="25" cy="25" r="23.5" stroke="#FFB800" stroke-width="3"/>
<path d="M28.6406 27.7812L30.8125 21.9219C30.9062 21.651 31.0052 21.4323 31.1094 21.2656C31.224 21.0885 31.4479 21 31.7812 21H33.4375C33.7396 21 33.8906 21.0885 33.8906 21.2656C33.8906 21.3802 33.8333 21.5677 33.7188 21.8281L27.7344 35.9375C27.5885 36.2917 27.4219 36.5573 27.2344 36.7344C27.0573 36.9115 26.8021 37 26.4688 37H24C23.7812 37 23.599 36.9688 23.4531 36.9062C23.3073 36.8333 23.1823 36.7448 23.0781 36.6406C22.9844 36.5365 22.9062 36.4271 22.8438 36.3125C22.7812 36.1875 22.7292 36.0729 22.6875 35.9688L16.25 22.3125C16.1562 22.1146 16.1094 21.9323 16.1094 21.7656C16.1094 21.4948 16.2083 21.3021 16.4062 21.1875C16.6042 21.0625 16.8073 21 17.0156 21H24.6406C24.901 21 25.1198 21.0104 25.2969 21.0312C25.474 21.0521 25.6198 21.0938 25.7344 21.1562C25.849 21.2083 25.9427 21.276 26.0156 21.3594C26.0885 21.4427 26.151 21.5469 26.2031 21.6719L28.6406 27.7812Z" fill="url(#paint0_linear_13_164)"/>
<defs>
<linearGradient id="paint0_linear_13_164" x1="25" y1="0" x2="25" y2="50" gradientUnits="userSpaceOnUse">
<stop stop-color="#FFA800"/>
<stop offset="1" stop-color="#FFC700"/>
</linearGradient>
</defs>
</svg>
