<svg width="30" height="23" viewBox="0 0 30 23" fill="none" xmlns="http://www.w3.org/2000/svg">
<path d="M9.20508 15.8799L10.071 15.3798L9.20598 13.8819L8.33957 15.379L9.20508 15.8799ZM6.15039 21.1582L5.28481 20.6573L5.27881 20.6679L6.15039 21.1582ZM5.74609 21.8545L4.8886 21.34L4.87562 21.3616L4.86374 21.3839L5.74609 21.8545ZM5.31934 22.4385L4.61223 21.7314L4.5954 21.7482L4.5794 21.7658L5.31934 22.4385ZM4.78027 22.8428L4.33306 21.9483L4.31951 21.9551L4.30617 21.9623L4.78027 22.8428ZM0.894531 22.8428L0.230167 23.5902L0.273535 23.6287L0.32107 23.662L0.894531 22.8428ZM0.759766 21.877L-0.188917 21.5607L-0.197695 21.5871L-0.204998 21.6138L0.759766 21.877ZM1.05176 21.293L1.89294 21.8337L1.89905 21.8242L1.90494 21.8146L1.05176 21.293ZM6.84668 11.8145L7.69986 12.3361L8.00962 11.8294L7.713 11.315L6.84668 11.8145ZM1.09668 1.8418L1.963 1.3423L1.95293 1.32484L1.94217 1.3078L1.09668 1.8418ZM16.6846 0.24707L16.1835 1.1125L16.193 1.118L16.2027 1.12329L16.6846 0.24707ZM17.3809 0.920898L16.5154 1.42194L16.5182 1.42672L17.3809 0.920898ZM20.2783 5.8623L19.4157 6.36813L20.2823 7.84605L21.143 6.36467L20.2783 5.8623ZM22.6143 1.8418L23.479 2.34421L23.4858 2.33206L22.6143 1.8418ZM22.9961 1.14551L22.1386 0.631012L22.1256 0.652653L22.1137 0.674919L22.9961 1.14551ZM23.4229 0.561523L22.7157 -0.145584L22.6989 -0.128757L22.6829 -0.111149L23.4229 0.561523ZM27.8701 0.179688L27.2058 0.927097L27.2491 0.965645L27.2967 0.998919L27.8701 0.179688ZM27.7354 1.70703L26.8837 1.18293L26.8828 1.18436L27.7354 1.70703ZM22.6816 9.9502L21.8291 9.42752L21.5162 9.93788L21.8182 10.4547L22.6816 9.9502ZM29.0605 20.8662L28.1972 21.3707L28.2029 21.3806L28.2089 21.3903L29.0605 20.8662ZM29.3525 21.4502L28.4192 21.8092L28.4365 21.8542L28.4581 21.8974L29.3525 21.4502ZM29.3525 22.5732L30.1846 23.1279L30.1978 23.1081L30.21 23.0877L29.3525 22.5732ZM28.9932 22.8877L29.3646 23.8162L29.4032 23.8007L29.4404 23.7821L28.9932 22.8877ZM28.499 23V24H28.5406L28.5821 23.9965L28.499 23ZM13.832 22.8652L13.4513 23.7899L13.4831 23.803L13.5158 23.8139L13.832 22.8652ZM13.1807 22.5059L12.5474 23.2798L12.5638 23.2932L12.5807 23.3059L13.1807 22.5059ZM12.7764 22.0791L11.9189 22.5936L11.937 22.6238L11.9571 22.6526L12.7764 22.0791ZM12.5518 21.6748L13.4462 21.2276L13.4327 21.2007L13.4177 21.1747L12.5518 21.6748ZM8.33957 15.379L5.28488 20.6573L7.0159 21.6591L10.0706 16.3808L8.33957 15.379ZM5.27881 20.6679C5.14841 20.8998 5.01833 21.1238 4.8886 21.34L6.60359 22.369C6.74339 22.136 6.88284 21.8958 7.02197 21.6485L5.27881 20.6679ZM4.86374 21.3839C4.7861 21.5295 4.70103 21.6426 4.61223 21.7314L6.02644 23.1456C6.26707 22.905 6.46651 22.6287 6.62845 22.3251L4.86374 21.3839ZM4.5794 21.7658C4.51704 21.8344 4.43818 21.8958 4.33306 21.9483L5.22749 23.7372C5.54164 23.5801 5.82215 23.372 6.05928 23.1111L4.5794 21.7658ZM4.30617 21.9623C4.2997 21.9658 4.22915 22 4.03906 22V24C4.44794 24 4.87153 23.9294 5.25437 23.7232L4.30617 21.9623ZM4.03906 22H1.45605V24H4.03906V22ZM1.45605 22C1.42107 22 1.41028 21.9959 1.41685 21.9977C1.42022 21.9987 1.42721 22.0009 1.43674 22.0054C1.44635 22.0099 1.45705 22.0159 1.46799 22.0235L0.32107 23.662C0.67404 23.9091 1.07382 24 1.45605 24V22ZM1.5589 22.0954C1.61252 22.143 1.65188 22.2024 1.67416 22.2594C1.69451 22.3114 1.69238 22.3398 1.69238 22.3262H-0.307617C-0.307617 22.7608 -0.16876 23.2356 0.230167 23.5902L1.5589 22.0954ZM1.69238 22.3262C1.69238 22.3002 1.69709 22.2407 1.72453 22.1401L-0.204998 21.6138C-0.267399 21.8426 -0.307617 22.0826 -0.307617 22.3262H1.69238ZM1.70845 22.1932C1.73523 22.1128 1.78994 21.9939 1.89294 21.8337L0.210579 20.7522C0.0440426 21.0113 -0.0959072 21.2817 -0.188917 21.5607L1.70845 22.1932ZM1.90494 21.8146L7.69986 12.3361L5.9935 11.2928L0.198576 20.7714L1.90494 21.8146ZM7.713 11.315L1.963 1.3423L0.230364 2.34129L5.98036 12.3139L7.713 11.315ZM1.94217 1.3078C1.83165 1.13282 1.82715 1.04696 1.82715 1.0332H-0.172852C-0.172852 1.52856 0.00233269 1.98177 0.25119 2.37579L1.94217 1.3078ZM1.82715 1.0332C1.82715 0.96839 1.83775 0.958517 1.82845 0.979902C1.81656 1.00723 1.79424 1.03524 1.77249 1.05191C1.75607 1.0645 1.76611 1.05048 1.8328 1.03344C1.90083 1.01605 2.01082 1 2.1748 1V-1C1.62592 -1 1.03088 -0.899666 0.555632 -0.535305C0.030077 -0.132381 -0.172852 0.45295 -0.172852 1.0332H1.82715ZM2.1748 1H15.1348V-1H2.1748V1ZM15.1348 1C15.4768 1 15.737 1.01912 15.9263 1.0493C16.1266 1.08123 16.1913 1.117 16.1835 1.1125L17.1856 -0.618357C16.6486 -0.929247 15.8877 -1 15.1348 -1V1ZM16.2027 1.12329C16.3491 1.20385 16.4457 1.30151 16.5154 1.42193L18.2463 0.419863C17.9866 -0.0287247 17.619 -0.380287 17.1665 -0.629145L16.2027 1.12329ZM16.5182 1.42672L19.4157 6.36813L21.141 5.35648L18.2435 0.415079L16.5182 1.42672ZM21.143 6.36467L23.4789 2.34417L21.7496 1.33943L19.4137 5.35994L21.143 6.36467ZM23.4858 2.33206C23.624 2.08647 23.7549 1.8478 23.8784 1.6161L22.1137 0.674919C21.9977 0.892435 21.8741 1.11796 21.7427 1.35154L23.4858 2.33206ZM23.8536 1.66C23.9602 1.48225 24.0643 1.34254 24.1628 1.2342L22.6829 -0.111149C22.4819 0.109936 22.3015 0.359545 22.1386 0.631012L23.8536 1.66ZM24.13 1.26863C24.2182 1.1804 24.3175 1.10871 24.4316 1.05165L23.5372 -0.7372C23.232 -0.584618 22.9569 -0.386774 22.7157 -0.145584L24.13 1.26863ZM24.4316 1.05165C24.4693 1.03282 24.562 1 24.748 1V-1C24.3351 -1 23.9188 -0.928001 23.5372 -0.7372L24.4316 1.05165ZM24.748 1H27.3086V-1H24.748V1ZM27.3086 1C27.3468 1 27.3476 1.00495 27.3239 0.997347C27.2967 0.988644 27.2517 0.967934 27.2058 0.927097L28.5345 -0.567722C28.1636 -0.897432 27.7113 -1 27.3086 -1V1ZM27.2967 0.998919C27.2266 0.949854 27.1656 0.877869 27.1282 0.795639C27.0941 0.720633 27.0947 0.670742 27.0947 0.673828H29.0947C29.0947 0.207268 28.923 -0.303942 28.4436 -0.639544L27.2967 0.998919ZM27.0947 0.673828C27.0947 0.715157 27.0735 0.874504 26.8837 1.18293L28.587 2.23113C28.8764 1.76091 29.0947 1.23146 29.0947 0.673828H27.0947ZM26.8828 1.18436L21.8291 9.42752L23.5342 10.4729L28.5879 2.2297L26.8828 1.18436ZM21.8182 10.4547L28.1972 21.3707L29.9239 20.3617L23.545 9.44566L21.8182 10.4547ZM28.2089 21.3903C28.2995 21.5375 28.3684 21.6771 28.4192 21.8092L30.2859 21.0912C30.1869 20.834 30.0612 20.5842 29.9122 20.3421L28.2089 21.3903ZM28.4581 21.8974C28.4935 21.9683 28.4873 21.9877 28.4873 21.9668H30.4873C30.4873 21.6164 30.3912 21.2915 30.247 21.003L28.4581 21.8974ZM28.4873 21.9668C28.4873 22.037 28.4809 22.0766 28.4774 22.0924C28.4741 22.1075 28.4755 22.0913 28.495 22.0587L30.21 23.0877C30.4264 22.7271 30.4873 22.3247 30.4873 21.9668H28.4873ZM28.5205 22.0185C28.5236 22.0139 28.5292 22.007 28.5368 22.0004C28.5442 21.9938 28.5486 21.992 28.546 21.9933L29.4404 23.7821C29.7403 23.6322 29.9949 23.4125 30.1846 23.1279L28.5205 22.0185ZM28.6218 21.9592C28.5744 21.9782 28.5082 21.9958 28.416 22.0035L28.5821 23.9965C28.8492 23.9743 29.1125 23.917 29.3646 23.8162L28.6218 21.9592ZM28.499 22C28.4987 22 28.4984 22 28.4981 22C28.4977 22 28.4974 22 28.4971 22C28.4968 22 28.4964 22 28.4961 22C28.4958 22 28.4955 22 28.4952 22C28.4948 22 28.4945 22 28.4942 22C28.4939 22 28.4936 22 28.4932 22C28.4929 22 28.4926 22 28.4923 22C28.4919 22 28.4916 22 28.4913 22C28.491 22 28.4907 22 28.4903 22C28.49 22 28.4897 22 28.4894 22C28.489 22 28.4887 22 28.4884 22C28.4881 22 28.4878 22 28.4874 22C28.4871 22 28.4868 22 28.4865 22C28.4861 22 28.4858 22 28.4855 22C28.4852 22 28.4849 22 28.4845 22C28.4842 22 28.4839 22 28.4836 22C28.4832 22 28.4829 22 28.4826 22C28.4823 22 28.4819 22 28.4816 22C28.4813 22 28.481 22 28.4807 22C28.4803 22 28.48 22 28.4797 22C28.4794 22 28.479 22 28.4787 22C28.4784 22 28.4781 22 28.4777 22C28.4774 22 28.4771 22 28.4768 22C28.4765 22 28.4761 22 28.4758 22C28.4755 22 28.4752 22 28.4748 22C28.4745 22 28.4742 22 28.4739 22C28.4735 22 28.4732 22 28.4729 22C28.4726 22 28.4723 22 28.4719 22C28.4716 22 28.4713 22 28.471 22C28.4706 22 28.4703 22 28.47 22C28.4697 22 28.4693 22 28.469 22C28.4687 22 28.4684 22 28.4681 22C28.4677 22 28.4674 22 28.4671 22C28.4668 22 28.4664 22 28.4661 22C28.4658 22 28.4655 22 28.4651 22C28.4648 22 28.4645 22 28.4642 22C28.4638 22 28.4635 22 28.4632 22C28.4629 22 28.4625 22 28.4622 22C28.4619 22 28.4616 22 28.4613 22C28.4609 22 28.4606 22 28.4603 22C28.46 22 28.4596 22 28.4593 22C28.459 22 28.4587 22 28.4583 22C28.458 22 28.4577 22 28.4574 22C28.457 22 28.4567 22 28.4564 22C28.4561 22 28.4557 22 28.4554 22C28.4551 22 28.4548 22 28.4544 22C28.4541 22 28.4538 22 28.4535 22C28.4531 22 28.4528 22 28.4525 22C28.4522 22 28.4519 22 28.4515 22C28.4512 22 28.4509 22 28.4506 22C28.4502 22 28.4499 22 28.4496 22C28.4493 22 28.4489 22 28.4486 22C28.4483 22 28.448 22 28.4476 22C28.4473 22 28.447 22 28.4467 22C28.4463 22 28.446 22 28.4457 22C28.4454 22 28.445 22 28.4447 22C28.4444 22 28.4441 22 28.4437 22C28.4434 22 28.4431 22 28.4428 22C28.4424 22 28.4421 22 28.4418 22C28.4415 22 28.4411 22 28.4408 22C28.4405 22 28.4402 22 28.4398 22C28.4395 22 28.4392 22 28.4389 22C28.4385 22 28.4382 22 28.4379 22C28.4376 22 28.4372 22 28.4369 22C28.4366 22 28.4363 22 28.4359 22C28.4356 22 28.4353 22 28.435 22C28.4346 22 28.4343 22 28.434 22C28.4337 22 28.4333 22 28.433 22C28.4327 22 28.4323 22 28.432 22C28.4317 22 28.4314 22 28.431 22C28.4307 22 28.4304 22 28.4301 22C28.4297 22 28.4294 22 28.4291 22C28.4288 22 28.4284 22 28.4281 22C28.4278 22 28.4275 22 28.4271 22C28.4268 22 28.4265 22 28.4262 22C28.4258 22 28.4255 22 28.4252 22C28.4249 22 28.4245 22 28.4242 22C28.4239 22 28.4235 22 28.4232 22C28.4229 22 28.4226 22 28.4222 22C28.4219 22 28.4216 22 28.4213 22C28.4209 22 28.4206 22 28.4203 22C28.42 22 28.4196 22 28.4193 22C28.419 22 28.4187 22 28.4183 22C28.418 22 28.4177 22 28.4174 22C28.417 22 28.4167 22 28.4164 22C28.416 22 28.4157 22 28.4154 22C28.4151 22 28.4147 22 28.4144 22C28.4141 22 28.4138 22 28.4134 22C28.4131 22 28.4128 22 28.4124 22C28.4121 22 28.4118 22 28.4115 22C28.4111 22 28.4108 22 28.4105 22C28.4102 22 28.4098 22 28.4095 22C28.4092 22 28.4089 22 28.4085 22C28.4082 22 28.4079 22 28.4075 22C28.4072 22 28.4069 22 28.4066 22C28.4062 22 28.4059 22 28.4056 22C28.4053 22 28.4049 22 28.4046 22C28.4043 22 28.4039 22 28.4036 22C28.4033 22 28.403 22 28.4026 22C28.4023 22 28.402 22 28.4017 22C28.4013 22 28.401 22 28.4007 22C28.4003 22 28.4 22 28.3997 22C28.3994 22 28.399 22 28.3987 22C28.3984 22 28.3981 22 28.3977 22C28.3974 22 28.3971 22 28.3967 22C28.3964 22 28.3961 22 28.3958 22C28.3954 22 28.3951 22 28.3948 22C28.3944 22 28.3941 22 28.3938 22C28.3935 22 28.3931 22 28.3928 22C28.3925 22 28.3922 22 28.3918 22C28.3915 22 28.3912 22 28.3908 22C28.3905 22 28.3902 22 28.3899 22C28.3895 22 28.3892 22 28.3889 22C28.3885 22 28.3882 22 28.3879 22C28.3876 22 28.3872 22 28.3869 22C28.3866 22 28.3862 22 28.3859 22C28.3856 22 28.3853 22 28.3849 22C28.3846 22 28.3843 22 28.3839 22C28.3836 22 28.3833 22 28.383 22C28.3826 22 28.3823 22 28.382 22C28.3816 22 28.3813 22 28.381 22C28.3807 22 28.3803 22 28.38 22C28.3797 22 28.3793 22 28.379 22C28.3787 22 28.3784 22 28.378 22C28.3777 22 28.3774 22 28.377 22C28.3767 22 28.3764 22 28.3761 22C28.3757 22 28.3754 22 28.3751 22C28.3747 22 28.3744 22 28.3741 22C28.3738 22 28.3734 22 28.3731 22C28.3728 22 28.3724 22 28.3721 22C28.3718 22 28.3715 22 28.3711 22C28.3708 22 28.3705 22 28.3701 22C28.3698 22 28.3695 22 28.3691 22C28.3688 22 28.3685 22 28.3682 22C28.3678 22 28.3675 22 28.3672 22C28.3668 22 28.3665 22 28.3662 22C28.3659 22 28.3655 22 28.3652 22C28.3649 22 28.3645 22 28.3642 22C28.3639 22 28.3635 22 28.3632 22C28.3629 22 28.3626 22 28.3622 22C28.3619 22 28.3616 22 28.3612 22C28.3609 22 28.3606 22 28.3602 22C28.3599 22 28.3596 22 28.3593 22C28.3589 22 28.3586 22 28.3583 22C28.3579 22 28.3576 22 28.3573 22C28.3569 22 28.3566 22 28.3563 22C28.356 22 28.3556 22 28.3553 22C28.355 22 28.3546 22 28.3543 22C28.354 22 28.3536 22 28.3533 22C28.353 22 28.3527 22 28.3523 22C28.352 22 28.3517 22 28.3513 22C28.351 22 28.3507 22 28.3503 22C28.35 22 28.3497 22 28.3494 22C28.349 22 28.3487 22 28.3484 22C28.348 22 28.3477 22 28.3474 22C28.347 22 28.3467 22 28.3464 22C28.3461 22 28.3457 22 28.3454 22C28.3451 22 28.3447 22 28.3444 22C28.3441 22 28.3437 22 28.3434 22C28.3431 22 28.3427 22 28.3424 22C28.3421 22 28.3418 22 28.3414 22C28.3411 22 28.3408 22 28.3404 22C28.3401 22 28.3398 22 28.3394 22C28.3391 22 28.3388 22 28.3384 22C28.3381 22 28.3378 22 28.3374 22C28.3371 22 28.3368 22 28.3365 22C28.3361 22 28.3358 22 28.3355 22C28.3351 22 28.3348 22 28.3345 22C28.3341 22 28.3338 22 28.3335 22C28.3331 22 28.3328 22 28.3325 22C28.3321 22 28.3318 22 28.3315 22C28.3312 22 28.3308 22 28.3305 22C28.3302 22 28.3298 22 28.3295 22C28.3292 22 28.3288 22 28.3285 22C28.3282 22 28.3278 22 28.3275 22C28.3272 22 28.3268 22 28.3265 22C28.3262 22 28.3258 22 28.3255 22C28.3252 22 28.3248 22 28.3245 22C28.3242 22 28.3239 22 28.3235 22C28.3232 22 28.3229 22 28.3225 22C28.3222 22 28.3219 22 28.3215 22C28.3212 22 28.3209 22 28.3205 22C28.3202 22 28.3199 22 28.3195 22C28.3192 22 28.3189 22 28.3185 22C28.3182 22 28.3179 22 28.3175 22C28.3172 22 28.3169 22 28.3165 22C28.3162 22 28.3159 22 28.3156 22C28.3152 22 28.3149 22 28.3146 22C28.3142 22 28.3139 22 28.3136 22C28.3132 22 28.3129 22 28.3126 22C28.3122 22 28.3119 22 28.3116 22C28.3112 22 28.3109 22 28.3106 22C28.3102 22 28.3099 22 28.3096 22C28.3092 22 28.3089 22 28.3086 22C28.3082 22 28.3079 22 28.3076 22C28.3072 22 28.3069 22 28.3066 22C28.3062 22 28.3059 22 28.3056 22C28.3052 22 28.3049 22 28.3046 22C28.3042 22 28.3039 22 28.3036 22C28.3032 22 28.3029 22 28.3026 22C28.3022 22 28.3019 22 28.3016 22C28.3012 22 28.3009 22 28.3006 22C28.3002 22 28.2999 22 28.2996 22C28.2992 22 28.2989 22 28.2986 22C28.2982 22 28.2979 22 28.2976 22C28.2972 22 28.2969 22 28.2966 22C28.2962 22 28.2959 22 28.2956 22C28.2952 22 28.2949 22 28.2946 22C28.2942 22 28.2939 22 28.2936 22C28.2932 22 28.2929 22 28.2926 22C28.2922 22 28.2919 22 28.2916 22C28.2912 22 28.2909 22 28.2906 22C28.2902 22 28.2899 22 28.2896 22C28.2892 22 28.2889 22 28.2886 22C28.2882 22 28.2879 22 28.2876 22C28.2872 22 28.2869 22 28.2866 22C28.2862 22 28.2859 22 28.2856 22C28.2852 22 28.2849 22 28.2846 22C28.2842 22 28.2839 22 28.2836 22C28.2832 22 28.2829 22 28.2826 22C28.2822 22 28.2819 22 28.2815 22C28.2812 22 28.2809 22 28.2805 22C28.2802 22 28.2799 22 28.2795 22C28.2792 22 28.2789 22 28.2785 22C28.2782 22 28.2779 22 28.2775 22C28.2772 22 28.2769 22 28.2765 22C28.2762 22 28.2759 22 28.2755 22C28.2752 22 28.2749 22 28.2745 22C28.2742 22 28.2739 22 28.2735 22C28.2732 22 28.2729 22 28.2725 22C28.2722 22 28.2718 22 28.2715 22C28.2712 22 28.2708 22 28.2705 22C28.2702 22 28.2698 22 28.2695 22C28.2692 22 28.2688 22 28.2685 22C28.2682 22 28.2678 22 28.2675 22C28.2672 22 28.2668 22 28.2665 22C28.2661 22 28.2658 22 28.2655 22C28.2651 22 28.2648 22 28.2645 22C28.2641 22 28.2638 22 28.2635 22C28.2631 22 28.2628 22 28.2625 22C28.2621 22 28.2618 22 28.2615 22C28.2611 22 28.2608 22 28.2604 22C28.2601 22 28.2598 22 28.2594 22C28.2591 22 28.2588 22 28.2584 22C28.2581 22 28.2578 22 28.2574 22C28.2571 22 28.2568 22 28.2564 22C28.2561 22 28.2557 22 28.2554 22C28.2551 22 28.2547 22 28.2544 22C28.2541 22 28.2537 22 28.2534 22C28.2531 22 28.2527 22 28.2524 22C28.2521 22 28.2517 22 28.2514 22C28.251 22 28.2507 22 28.2504 22C28.25 22 28.2497 22 28.2494 22C28.249 22 28.2487 22 28.2484 22C28.248 22 28.2477 22 28.2473 22C28.247 22 28.2467 22 28.2463 22C28.246 22 28.2457 22 28.2453 22C28.245 22 28.2447 22 28.2443 22C28.244 22 28.2436 22 28.2433 22C28.243 22 28.2426 22 28.2423 22C28.242 22 28.2416 22 28.2413 22C28.241 22 28.2406 22 28.2403 22C28.2399 22 28.2396 22 28.2393 22C28.2389 22 28.2386 22 28.2383 22C28.2379 22 28.2376 22 28.2373 22C28.2369 22 28.2366 22 28.2362 22C28.2359 22 28.2356 22 28.2352 22C28.2349 22 28.2346 22 28.2342 22C28.2339 22 28.2335 22 28.2332 22C28.2329 22 28.2325 22 28.2322 22C28.2319 22 28.2315 22 28.2312 22C28.2308 22 28.2305 22 28.2302 22C28.2298 22 28.2295 22 28.2292 22C28.2288 22 28.2285 22 28.2281 22C28.2278 22 28.2275 22 28.2271 22C28.2268 22 28.2265 22 28.2261 22C28.2258 22 28.2254 22 28.2251 22C28.2248 22 28.2244 22 28.2241 22C28.2238 22 28.2234 22 28.2231 22C28.2227 22 28.2224 22 28.2221 22C28.2217 22 28.2214 22 28.2211 22C28.2207 22 28.2204 22 28.22 22C28.2197 22 28.2194 22 28.219 22C28.2187 22 28.2184 22 28.218 22C28.2177 22 28.2173 22 28.217 22C28.2167 22 28.2163 22 28.216 22C28.2157 22 28.2153 22 28.215 22C28.2146 22 28.2143 22 28.214 22C28.2136 22 28.2133 22 28.2129 22C28.2126 22 28.2123 22 28.2119 22C28.2116 22 28.2113 22 28.2109 22C28.2106 22 28.2102 22 28.2099 22C28.2096 22 28.2092 22 28.2089 22C28.2085 22 28.2082 22 28.2079 22C28.2075 22 28.2072 22 28.2069 22C28.2065 22 28.2062 22 28.2058 22C28.2055 22 28.2052 22 28.2048 22C28.2045 22 28.2041 22 28.2038 22C28.2035 22 28.2031 22 28.2028 22C28.2025 22 28.2021 22 28.2018 22C28.2014 22 28.2011 22 28.2008 22C28.2004 22 28.2001 22 28.1997 22C28.1994 22 28.1991 22 28.1987 22C28.1984 22 28.198 22 28.1977 22C28.1974 22 28.197 22 28.1967 22C28.1964 22 28.196 22 28.1957 22C28.1953 22 28.195 22 28.1947 22C28.1943 22 28.194 22 28.1936 22C28.1933 22 28.193 22 28.1926 22C28.1923 22 28.1919 22 28.1916 22C28.1913 22 28.1909 22 28.1906 22C28.1902 22 28.1899 22 28.1896 22C28.1892 22 28.1889 22 28.1885 22C28.1882 22 28.1879 22 28.1875 22C28.1872 22 28.1868 22 28.1865 22C28.1862 22 28.1858 22 28.1855 22C28.1852 22 28.1848 22 28.1845 22C28.1841 22 28.1838 22 28.1835 22C28.1831 22 28.1828 22 28.1824 22C28.1821 22 28.1818 22 28.1814 22C28.1811 22 28.1807 22 28.1804 22C28.18 22 28.1797 22 28.1794 22C28.179 22 28.1787 22 28.1784 22C28.178 22 28.1777 22 28.1773 22C28.177 22 28.1767 22 28.1763 22C28.176 22 28.1756 22 28.1753 22C28.1749 22 28.1746 22 28.1743 22C28.1739 22 28.1736 22 28.1732 22C28.1729 22 28.1726 22 28.1722 22C28.1719 22 28.1715 22 28.1712 22C28.1709 22 28.1705 22 28.1702 22C28.1698 22 28.1695 22 28.1692 22C28.1688 22 28.1685 22 28.1681 22C28.1678 22 28.1675 22 28.1671 22C28.1668 22 28.1664 22 28.1661 22C28.1658 22 28.1654 22 28.1651 22C28.1647 22 28.1644 22 28.164 22C28.1637 22 28.1634 22 28.163 22C28.1627 22 28.1623 22 28.162 22C28.1617 22 28.1613 22 28.161 22C28.1606 22 28.1603 22 28.16 22C28.1596 22 28.1593 22 28.1589 22C28.1586 22 28.1582 22 28.1579 22C28.1576 22 28.1572 22 28.1569 22C28.1565 22 28.1562 22 28.1559 22C28.1555 22 28.1552 22 28.1548 22C28.1545 22 28.1542 22 28.1538 22C28.1535 22 28.1531 22 28.1528 22C28.1524 22 28.1521 22 28.1518 22C28.1514 22 28.1511 22 28.1507 22C28.1504 22 28.1501 22 28.1497 22C28.1494 22 28.149 22 28.1487 22C28.1483 22 28.148 22 28.1477 22C28.1473 22 28.147 22 28.1466 22C28.1463 22 28.146 22 28.1456 22C28.1453 22 28.1449 22 28.1446 22C28.1442 22 28.1439 22 28.1436 22C28.1432 22 28.1429 22 28.1425 22C28.1422 22 28.1418 22 28.1415 22C28.1412 22 28.1408 22 28.1405 22C28.1401 22 28.1398 22 28.1395 22C28.1391 22 28.1388 22 28.1384 22C28.1381 22 28.1377 22 28.1374 22C28.1371 22 28.1367 22 28.1364 22C28.136 22 28.1357 22 28.1353 22C28.135 22 28.1347 22 28.1343 22C28.134 22 28.1336 22 28.1333 22C28.1329 22 28.1326 22 28.1323 22C28.1319 22 28.1316 22 28.1312 22C28.1309 22 28.1305 22 28.1302 22C28.1299 22 28.1295 22 28.1292 22C28.1288 22 28.1285 22 28.1281 22C28.1278 22 28.1275 22 28.1271 22C28.1268 22 28.1264 22 28.1261 22C28.1257 22 28.1254 22 28.1251 22C28.1247 22 28.1244 22 28.124 22C28.1237 22 28.1233 22 28.123 22C28.1227 22 28.1223 22 28.122 22C28.1216 22 28.1213 22 28.1209 22C28.1206 22 28.1203 22 28.1199 22C28.1196 22 28.1192 22 28.1189 22C28.1185 22 28.1182 22 28.1178 22C28.1175 22 28.1172 22 28.1168 22C28.1165 22 28.1161 22 28.1158 22C28.1154 22 28.1151 22 28.1148 22C28.1144 22 28.1141 22 28.1137 22C28.1134 22 28.113 22 28.1127 22C28.1123 22 28.112 22 28.1117 22C28.1113 22 28.111 22 28.1106 22C28.1103 22 28.1099 22 28.1096 22C28.1093 22 28.1089 22 28.1086 22C28.1082 22 28.1079 22 28.1075 22C28.1072 22 28.1068 22 28.1065 22C28.1062 22 28.1058 22 28.1055 22C28.1051 22 28.1048 22 28.1044 22C28.1041 22 28.1037 22 28.1034 22C28.1031 22 28.1027 22 28.1024 22C28.102 22 28.1017 22 28.1013 22C28.101 22 28.1006 22 28.1003 22C28.1 22 28.0996 22 28.0993 22C28.0989 22 28.0986 22 28.0982 22C28.0979 22 28.0975 22 28.0972 22C28.0969 22 28.0965 22 28.0962 22C28.0958 22 28.0955 22 28.0951 22C28.0948 22 28.0944 22 28.0941 22C28.0938 22 28.0934 22 28.0931 22C28.0927 22 28.0924 22 28.092 22C28.0917 22 28.0913 22 28.091 22C28.0906 22 28.0903 22 28.09 22C28.0896 22 28.0893 22 28.0889 22C28.0886 22 28.0882 22 28.0879 22C28.0875 22 28.0872 22 28.0868 22C28.0865 22 28.0862 22 28.0858 22C28.0855 22 28.0851 22 28.0848 22C28.0844 22 28.0841 22 28.0837 22C28.0834 22 28.0831 22 28.0827 22C28.0824 22 28.082 22 28.0817 22C28.0813 22 28.081 22 28.0806 22C28.0803 22 28.0799 22 28.0796 22C28.0793 22 28.0789 22 28.0786 22C28.0782 22 28.0779 22 28.0775 22C28.0772 22 28.0768 22 28.0765 22C28.0761 22 28.0758 22 28.0754 22C28.0751 22 28.0748 22 28.0744 22C28.0741 22 28.0737 22 28.0734 22C28.073 22 28.0727 22 28.0723 22C28.072 22 28.0716 22 28.0713 22C28.0709 22 28.0706 22 28.0703 22C28.0699 22 28.0696 22 28.0692 22C28.0689 22 28.0685 22 28.0682 22C28.0678 22 28.0675 22 28.0671 22C28.0668 22 28.0664 22 28.0661 22C28.0658 22 28.0654 22 28.0651 22C28.0647 22 28.0644 22 28.064 22C28.0637 22 28.0633 22 28.063 22C28.0626 22 28.0623 22 28.0619 22C28.0616 22 28.0613 22 28.0609 22C28.0606 22 28.0602 22 28.0599 22C28.0595 22 28.0592 22 28.0588 22C28.0585 22 28.0581 22 28.0578 22C28.0574 22 28.0571 22 28.0567 22C28.0564 22 28.056 22 28.0557 22C28.0554 22 28.055 22 28.0547 22C28.0543 22 28.054 22 28.0536 22C28.0533 22 28.0529 22 28.0526 22C28.0522 22 28.0519 22 28.0515 22C28.0512 22 28.0508 22 28.0505 22C28.0501 22 28.0498 22 28.0495 22C28.0491 22 28.0488 22 28.0484 22C28.0481 22 28.0477 22 28.0474 22C28.047 22 28.0467 22 28.0463 22C28.046 22 28.0456 22 28.0453 22C28.0449 22 28.0446 22 28.0442 22C28.0439 22 28.0435 22 28.0432 22C28.0429 22 28.0425 22 28.0422 22C28.0418 22 28.0415 22 28.0411 22C28.0408 22 28.0404 22 28.0401 22C28.0397 22 28.0394 22 28.039 22C28.0387 22 28.0383 22 28.038 22C28.0376 22 28.0373 22 28.0369 22C28.0366 22 28.0362 22 28.0359 22C28.0355 22 28.0352 22 28.0349 22C28.0345 22 28.0342 22 28.0338 22C28.0335 22 28.0331 22 28.0328 22C28.0324 22 28.0321 22 28.0317 22C28.0314 22 28.031 22 28.0307 22C28.0303 22 28.03 22 28.0296 22C28.0293 22 28.0289 22 28.0286 22C28.0282 22 28.0279 22 28.0275 22C28.0272 22 28.0268 22 28.0265 22C28.0261 22 28.0258 22 28.0254 22C28.0251 22 28.0247 22 28.0244 22C28.0241 22 28.0237 22 28.0234 22C28.023 22 28.0227 22 28.0223 22C28.022 22 28.0216 22 28.0213 22C28.0209 22 28.0206 22 28.0202 22C28.0199 22 28.0195 22 28.0192 22C28.0188 22 28.0185 22 28.0181 22C28.0178 22 28.0174 22 28.0171 22C28.0167 22 28.0164 22 28.016 22C28.0157 22 28.0153 22 28.015 22C28.0146 22 28.0143 22 28.0139 22C28.0136 22 28.0132 22 28.0129 22C28.0125 22 28.0122 22 28.0118 22C28.0115 22 28.0111 22 28.0108 22C28.0104 22 28.0101 22 28.0097 22C28.0094 22 28.009 22 28.0087 22C28.0083 22 28.008 22 28.0076 22C28.0073 22 28.0069 22 28.0066 22C28.0062 22 28.0059 22 28.0055 22C28.0052 22 28.0048 22 28.0045 22C28.0041 22 28.0038 22 28.0034 22C28.0031 22 28.0027 22 28.0024 22C28.002 22 28.0017 22 28.0013 22C28.001 22 28.0006 22 28.0003 22C27.9999 22 27.9996 22 27.9992 22C27.9989 22 27.9985 22 27.9982 22C27.9978 22 27.9975 22 27.9971 22C27.9968 22 27.9964 22 27.9961 22C27.9957 22 27.9954 22 27.995 22C27.9947 22 27.9943 22 27.994 22C27.9936 22 27.9933 22 27.9929 22C27.9926 22 27.9922 22 27.9919 22C27.9915 22 27.9912 22 27.9908 22C27.9905 22 27.9901 22 27.9898 22C27.9894 22 27.9891 22 27.9887 22C27.9884 22 27.988 22 27.9877 22C27.9873 22 27.987 22 27.9866 22C27.9863 22 27.9859 22 27.9856 22C27.9852 22 27.9849 22 27.9845 22C27.9842 22 27.9838 22 27.9835 22C27.9831 22 27.9828 22 27.9824 22V24C27.9828 24 27.9831 24 27.9835 24C27.9838 24 27.9842 24 27.9845 24C27.9849 24 27.9852 24 27.9856 24C27.9859 24 27.9863 24 27.9866 24C27.987 24 27.9873 24 27.9877 24C27.988 24 27.9884 24 27.9887 24C27.9891 24 27.9894 24 27.9898 24C27.9901 24 27.9905 24 27.9908 24C27.9912 24 27.9915 24 27.9919 24C27.9922 24 27.9926 24 27.9929 24C27.9933 24 27.9936 24 27.994 24C27.9943 24 27.9947 24 27.995 24C27.9954 24 27.9957 24 27.9961 24C27.9964 24 27.9968 24 27.9971 24C27.9975 24 27.9978 24 27.9982 24C27.9985 24 27.9989 24 27.9992 24C27.9996 24 27.9999 24 28.0003 24C28.0006 24 28.001 24 28.0013 24C28.0017 24 28.002 24 28.0024 24C28.0027 24 28.0031 24 28.0034 24C28.0038 24 28.0041 24 28.0045 24C28.0048 24 28.0052 24 28.0055 24C28.0059 24 28.0062 24 28.0066 24C28.0069 24 28.0073 24 28.0076 24C28.008 24 28.0083 24 28.0087 24C28.009 24 28.0094 24 28.0097 24C28.0101 24 28.0104 24 28.0108 24C28.0111 24 28.0115 24 28.0118 24C28.0122 24 28.0125 24 28.0129 24C28.0132 24 28.0136 24 28.0139 24C28.0143 24 28.0146 24 28.015 24C28.0153 24 28.0157 24 28.016 24C28.0164 24 28.0167 24 28.0171 24C28.0174 24 28.0178 24 28.0181 24C28.0185 24 28.0188 24 28.0192 24C28.0195 24 28.0199 24 28.0202 24C28.0206 24 28.0209 24 28.0213 24C28.0216 24 28.022 24 28.0223 24C28.0227 24 28.023 24 28.0234 24C28.0237 24 28.0241 24 28.0244 24C28.0247 24 28.0251 24 28.0254 24C28.0258 24 28.0261 24 28.0265 24C28.0268 24 28.0272 24 28.0275 24C28.0279 24 28.0282 24 28.0286 24C28.0289 24 28.0293 24 28.0296 24C28.03 24 28.0303 24 28.0307 24C28.031 24 28.0314 24 28.0317 24C28.0321 24 28.0324 24 28.0328 24C28.0331 24 28.0335 24 28.0338 24C28.0342 24 28.0345 24 28.0349 24C28.0352 24 28.0355 24 28.0359 24C28.0362 24 28.0366 24 28.0369 24C28.0373 24 28.0376 24 28.038 24C28.0383 24 28.0387 24 28.039 24C28.0394 24 28.0397 24 28.0401 24C28.0404 24 28.0408 24 28.0411 24C28.0415 24 28.0418 24 28.0422 24C28.0425 24 28.0429 24 28.0432 24C28.0435 24 28.0439 24 28.0442 24C28.0446 24 28.0449 24 28.0453 24C28.0456 24 28.046 24 28.0463 24C28.0467 24 28.047 24 28.0474 24C28.0477 24 28.0481 24 28.0484 24C28.0488 24 28.0491 24 28.0495 24C28.0498 24 28.0501 24 28.0505 24C28.0508 24 28.0512 24 28.0515 24C28.0519 24 28.0522 24 28.0526 24C28.0529 24 28.0533 24 28.0536 24C28.054 24 28.0543 24 28.0547 24C28.055 24 28.0554 24 28.0557 24C28.056 24 28.0564 24 28.0567 24C28.0571 24 28.0574 24 28.0578 24C28.0581 24 28.0585 24 28.0588 24C28.0592 24 28.0595 24 28.0599 24C28.0602 24 28.0606 24 28.0609 24C28.0613 24 28.0616 24 28.0619 24C28.0623 24 28.0626 24 28.063 24C28.0633 24 28.0637 24 28.064 24C28.0644 24 28.0647 24 28.0651 24C28.0654 24 28.0658 24 28.0661 24C28.0664 24 28.0668 24 28.0671 24C28.0675 24 28.0678 24 28.0682 24C28.0685 24 28.0689 24 28.0692 24C28.0696 24 28.0699 24 28.0703 24C28.0706 24 28.0709 24 28.0713 24C28.0716 24 28.072 24 28.0723 24C28.0727 24 28.073 24 28.0734 24C28.0737 24 28.0741 24 28.0744 24C28.0748 24 28.0751 24 28.0754 24C28.0758 24 28.0761 24 28.0765 24C28.0768 24 28.0772 24 28.0775 24C28.0779 24 28.0782 24 28.0786 24C28.0789 24 28.0793 24 28.0796 24C28.0799 24 28.0803 24 28.0806 24C28.081 24 28.0813 24 28.0817 24C28.082 24 28.0824 24 28.0827 24C28.0831 24 28.0834 24 28.0837 24C28.0841 24 28.0844 24 28.0848 24C28.0851 24 28.0855 24 28.0858 24C28.0862 24 28.0865 24 28.0868 24C28.0872 24 28.0875 24 28.0879 24C28.0882 24 28.0886 24 28.0889 24C28.0893 24 28.0896 24 28.09 24C28.0903 24 28.0906 24 28.091 24C28.0913 24 28.0917 24 28.092 24C28.0924 24 28.0927 24 28.0931 24C28.0934 24 28.0938 24 28.0941 24C28.0944 24 28.0948 24 28.0951 24C28.0955 24 28.0958 24 28.0962 24C28.0965 24 28.0969 24 28.0972 24C28.0975 24 28.0979 24 28.0982 24C28.0986 24 28.0989 24 28.0993 24C28.0996 24 28.1 24 28.1003 24C28.1006 24 28.101 24 28.1013 24C28.1017 24 28.102 24 28.1024 24C28.1027 24 28.1031 24 28.1034 24C28.1037 24 28.1041 24 28.1044 24C28.1048 24 28.1051 24 28.1055 24C28.1058 24 28.1062 24 28.1065 24C28.1068 24 28.1072 24 28.1075 24C28.1079 24 28.1082 24 28.1086 24C28.1089 24 28.1093 24 28.1096 24C28.1099 24 28.1103 24 28.1106 24C28.111 24 28.1113 24 28.1117 24C28.112 24 28.1123 24 28.1127 24C28.113 24 28.1134 24 28.1137 24C28.1141 24 28.1144 24 28.1148 24C28.1151 24 28.1154 24 28.1158 24C28.1161 24 28.1165 24 28.1168 24C28.1172 24 28.1175 24 28.1178 24C28.1182 24 28.1185 24 28.1189 24C28.1192 24 28.1196 24 28.1199 24C28.1203 24 28.1206 24 28.1209 24C28.1213 24 28.1216 24 28.122 24C28.1223 24 28.1227 24 28.123 24C28.1233 24 28.1237 24 28.124 24C28.1244 24 28.1247 24 28.1251 24C28.1254 24 28.1257 24 28.1261 24C28.1264 24 28.1268 24 28.1271 24C28.1275 24 28.1278 24 28.1281 24C28.1285 24 28.1288 24 28.1292 24C28.1295 24 28.1299 24 28.1302 24C28.1305 24 28.1309 24 28.1312 24C28.1316 24 28.1319 24 28.1323 24C28.1326 24 28.1329 24 28.1333 24C28.1336 24 28.134 24 28.1343 24C28.1347 24 28.135 24 28.1353 24C28.1357 24 28.136 24 28.1364 24C28.1367 24 28.1371 24 28.1374 24C28.1377 24 28.1381 24 28.1384 24C28.1388 24 28.1391 24 28.1395 24C28.1398 24 28.1401 24 28.1405 24C28.1408 24 28.1412 24 28.1415 24C28.1418 24 28.1422 24 28.1425 24C28.1429 24 28.1432 24 28.1436 24C28.1439 24 28.1442 24 28.1446 24C28.1449 24 28.1453 24 28.1456 24C28.146 24 28.1463 24 28.1466 24C28.147 24 28.1473 24 28.1477 24C28.148 24 28.1483 24 28.1487 24C28.149 24 28.1494 24 28.1497 24C28.1501 24 28.1504 24 28.1507 24C28.1511 24 28.1514 24 28.1518 24C28.1521 24 28.1524 24 28.1528 24C28.1531 24 28.1535 24 28.1538 24C28.1542 24 28.1545 24 28.1548 24C28.1552 24 28.1555 24 28.1559 24C28.1562 24 28.1565 24 28.1569 24C28.1572 24 28.1576 24 28.1579 24C28.1582 24 28.1586 24 28.1589 24C28.1593 24 28.1596 24 28.16 24C28.1603 24 28.1606 24 28.161 24C28.1613 24 28.1617 24 28.162 24C28.1623 24 28.1627 24 28.163 24C28.1634 24 28.1637 24 28.164 24C28.1644 24 28.1647 24 28.1651 24C28.1654 24 28.1658 24 28.1661 24C28.1664 24 28.1668 24 28.1671 24C28.1675 24 28.1678 24 28.1681 24C28.1685 24 28.1688 24 28.1692 24C28.1695 24 28.1698 24 28.1702 24C28.1705 24 28.1709 24 28.1712 24C28.1715 24 28.1719 24 28.1722 24C28.1726 24 28.1729 24 28.1732 24C28.1736 24 28.1739 24 28.1743 24C28.1746 24 28.1749 24 28.1753 24C28.1756 24 28.176 24 28.1763 24C28.1767 24 28.177 24 28.1773 24C28.1777 24 28.178 24 28.1784 24C28.1787 24 28.179 24 28.1794 24C28.1797 24 28.18 24 28.1804 24C28.1807 24 28.1811 24 28.1814 24C28.1818 24 28.1821 24 28.1824 24C28.1828 24 28.1831 24 28.1835 24C28.1838 24 28.1841 24 28.1845 24C28.1848 24 28.1852 24 28.1855 24C28.1858 24 28.1862 24 28.1865 24C28.1868 24 28.1872 24 28.1875 24C28.1879 24 28.1882 24 28.1885 24C28.1889 24 28.1892 24 28.1896 24C28.1899 24 28.1902 24 28.1906 24C28.1909 24 28.1913 24 28.1916 24C28.1919 24 28.1923 24 28.1926 24C28.193 24 28.1933 24 28.1936 24C28.194 24 28.1943 24 28.1947 24C28.195 24 28.1953 24 28.1957 24C28.196 24 28.1964 24 28.1967 24C28.197 24 28.1974 24 28.1977 24C28.198 24 28.1984 24 28.1987 24C28.1991 24 28.1994 24 28.1997 24C28.2001 24 28.2004 24 28.2008 24C28.2011 24 28.2014 24 28.2018 24C28.2021 24 28.2025 24 28.2028 24C28.2031 24 28.2035 24 28.2038 24C28.2041 24 28.2045 24 28.2048 24C28.2052 24 28.2055 24 28.2058 24C28.2062 24 28.2065 24 28.2069 24C28.2072 24 28.2075 24 28.2079 24C28.2082 24 28.2085 24 28.2089 24C28.2092 24 28.2096 24 28.2099 24C28.2102 24 28.2106 24 28.2109 24C28.2113 24 28.2116 24 28.2119 24C28.2123 24 28.2126 24 28.2129 24C28.2133 24 28.2136 24 28.214 24C28.2143 24 28.2146 24 28.215 24C28.2153 24 28.2157 24 28.216 24C28.2163 24 28.2167 24 28.217 24C28.2173 24 28.2177 24 28.218 24C28.2184 24 28.2187 24 28.219 24C28.2194 24 28.2197 24 28.22 24C28.2204 24 28.2207 24 28.2211 24C28.2214 24 28.2217 24 28.2221 24C28.2224 24 28.2227 24 28.2231 24C28.2234 24 28.2238 24 28.2241 24C28.2244 24 28.2248 24 28.2251 24C28.2254 24 28.2258 24 28.2261 24C28.2265 24 28.2268 24 28.2271 24C28.2275 24 28.2278 24 28.2281 24C28.2285 24 28.2288 24 28.2292 24C28.2295 24 28.2298 24 28.2302 24C28.2305 24 28.2308 24 28.2312 24C28.2315 24 28.2319 24 28.2322 24C28.2325 24 28.2329 24 28.2332 24C28.2335 24 28.2339 24 28.2342 24C28.2346 24 28.2349 24 28.2352 24C28.2356 24 28.2359 24 28.2362 24C28.2366 24 28.2369 24 28.2373 24C28.2376 24 28.2379 24 28.2383 24C28.2386 24 28.2389 24 28.2393 24C28.2396 24 28.2399 24 28.2403 24C28.2406 24 28.241 24 28.2413 24C28.2416 24 28.242 24 28.2423 24C28.2426 24 28.243 24 28.2433 24C28.2436 24 28.244 24 28.2443 24C28.2447 24 28.245 24 28.2453 24C28.2457 24 28.246 24 28.2463 24C28.2467 24 28.247 24 28.2473 24C28.2477 24 28.248 24 28.2484 24C28.2487 24 28.249 24 28.2494 24C28.2497 24 28.25 24 28.2504 24C28.2507 24 28.251 24 28.2514 24C28.2517 24 28.2521 24 28.2524 24C28.2527 24 28.2531 24 28.2534 24C28.2537 24 28.2541 24 28.2544 24C28.2547 24 28.2551 24 28.2554 24C28.2557 24 28.2561 24 28.2564 24C28.2568 24 28.2571 24 28.2574 24C28.2578 24 28.2581 24 28.2584 24C28.2588 24 28.2591 24 28.2594 24C28.2598 24 28.2601 24 28.2604 24C28.2608 24 28.2611 24 28.2615 24C28.2618 24 28.2621 24 28.2625 24C28.2628 24 28.2631 24 28.2635 24C28.2638 24 28.2641 24 28.2645 24C28.2648 24 28.2651 24 28.2655 24C28.2658 24 28.2661 24 28.2665 24C28.2668 24 28.2672 24 28.2675 24C28.2678 24 28.2682 24 28.2685 24C28.2688 24 28.2692 24 28.2695 24C28.2698 24 28.2702 24 28.2705 24C28.2708 24 28.2712 24 28.2715 24C28.2718 24 28.2722 24 28.2725 24C28.2729 24 28.2732 24 28.2735 24C28.2739 24 28.2742 24 28.2745 24C28.2749 24 28.2752 24 28.2755 24C28.2759 24 28.2762 24 28.2765 24C28.2769 24 28.2772 24 28.2775 24C28.2779 24 28.2782 24 28.2785 24C28.2789 24 28.2792 24 28.2795 24C28.2799 24 28.2802 24 28.2805 24C28.2809 24 28.2812 24 28.2815 24C28.2819 24 28.2822 24 28.2826 24C28.2829 24 28.2832 24 28.2836 24C28.2839 24 28.2842 24 28.2846 24C28.2849 24 28.2852 24 28.2856 24C28.2859 24 28.2862 24 28.2866 24C28.2869 24 28.2872 24 28.2876 24C28.2879 24 28.2882 24 28.2886 24C28.2889 24 28.2892 24 28.2896 24C28.2899 24 28.2902 24 28.2906 24C28.2909 24 28.2912 24 28.2916 24C28.2919 24 28.2922 24 28.2926 24C28.2929 24 28.2932 24 28.2936 24C28.2939 24 28.2942 24 28.2946 24C28.2949 24 28.2952 24 28.2956 24C28.2959 24 28.2962 24 28.2966 24C28.2969 24 28.2972 24 28.2976 24C28.2979 24 28.2982 24 28.2986 24C28.2989 24 28.2992 24 28.2996 24C28.2999 24 28.3002 24 28.3006 24C28.3009 24 28.3012 24 28.3016 24C28.3019 24 28.3022 24 28.3026 24C28.3029 24 28.3032 24 28.3036 24C28.3039 24 28.3042 24 28.3046 24C28.3049 24 28.3052 24 28.3056 24C28.3059 24 28.3062 24 28.3066 24C28.3069 24 28.3072 24 28.3076 24C28.3079 24 28.3082 24 28.3086 24C28.3089 24 28.3092 24 28.3096 24C28.3099 24 28.3102 24 28.3106 24C28.3109 24 28.3112 24 28.3116 24C28.3119 24 28.3122 24 28.3126 24C28.3129 24 28.3132 24 28.3136 24C28.3139 24 28.3142 24 28.3146 24C28.3149 24 28.3152 24 28.3156 24C28.3159 24 28.3162 24 28.3165 24C28.3169 24 28.3172 24 28.3175 24C28.3179 24 28.3182 24 28.3185 24C28.3189 24 28.3192 24 28.3195 24C28.3199 24 28.3202 24 28.3205 24C28.3209 24 28.3212 24 28.3215 24C28.3219 24 28.3222 24 28.3225 24C28.3229 24 28.3232 24 28.3235 24C28.3239 24 28.3242 24 28.3245 24C28.3248 24 28.3252 24 28.3255 24C28.3258 24 28.3262 24 28.3265 24C28.3268 24 28.3272 24 28.3275 24C28.3278 24 28.3282 24 28.3285 24C28.3288 24 28.3292 24 28.3295 24C28.3298 24 28.3302 24 28.3305 24C28.3308 24 28.3312 24 28.3315 24C28.3318 24 28.3321 24 28.3325 24C28.3328 24 28.3331 24 28.3335 24C28.3338 24 28.3341 24 28.3345 24C28.3348 24 28.3351 24 28.3355 24C28.3358 24 28.3361 24 28.3365 24C28.3368 24 28.3371 24 28.3374 24C28.3378 24 28.3381 24 28.3384 24C28.3388 24 28.3391 24 28.3394 24C28.3398 24 28.3401 24 28.3404 24C28.3408 24 28.3411 24 28.3414 24C28.3418 24 28.3421 24 28.3424 24C28.3427 24 28.3431 24 28.3434 24C28.3437 24 28.3441 24 28.3444 24C28.3447 24 28.3451 24 28.3454 24C28.3457 24 28.3461 24 28.3464 24C28.3467 24 28.347 24 28.3474 24C28.3477 24 28.348 24 28.3484 24C28.3487 24 28.349 24 28.3494 24C28.3497 24 28.35 24 28.3503 24C28.3507 24 28.351 24 28.3513 24C28.3517 24 28.352 24 28.3523 24C28.3527 24 28.353 24 28.3533 24C28.3536 24 28.354 24 28.3543 24C28.3546 24 28.355 24 28.3553 24C28.3556 24 28.356 24 28.3563 24C28.3566 24 28.3569 24 28.3573 24C28.3576 24 28.3579 24 28.3583 24C28.3586 24 28.3589 24 28.3593 24C28.3596 24 28.3599 24 28.3602 24C28.3606 24 28.3609 24 28.3612 24C28.3616 24 28.3619 24 28.3622 24C28.3626 24 28.3629 24 28.3632 24C28.3635 24 28.3639 24 28.3642 24C28.3645 24 28.3649 24 28.3652 24C28.3655 24 28.3659 24 28.3662 24C28.3665 24 28.3668 24 28.3672 24C28.3675 24 28.3678 24 28.3682 24C28.3685 24 28.3688 24 28.3691 24C28.3695 24 28.3698 24 28.3701 24C28.3705 24 28.3708 24 28.3711 24C28.3715 24 28.3718 24 28.3721 24C28.3724 24 28.3728 24 28.3731 24C28.3734 24 28.3738 24 28.3741 24C28.3744 24 28.3747 24 28.3751 24C28.3754 24 28.3757 24 28.3761 24C28.3764 24 28.3767 24 28.377 24C28.3774 24 28.3777 24 28.378 24C28.3784 24 28.3787 24 28.379 24C28.3793 24 28.3797 24 28.38 24C28.3803 24 28.3807 24 28.381 24C28.3813 24 28.3816 24 28.382 24C28.3823 24 28.3826 24 28.383 24C28.3833 24 28.3836 24 28.3839 24C28.3843 24 28.3846 24 28.3849 24C28.3853 24 28.3856 24 28.3859 24C28.3862 24 28.3866 24 28.3869 24C28.3872 24 28.3876 24 28.3879 24C28.3882 24 28.3885 24 28.3889 24C28.3892 24 28.3895 24 28.3899 24C28.3902 24 28.3905 24 28.3908 24C28.3912 24 28.3915 24 28.3918 24C28.3922 24 28.3925 24 28.3928 24C28.3931 24 28.3935 24 28.3938 24C28.3941 24 28.3944 24 28.3948 24C28.3951 24 28.3954 24 28.3958 24C28.3961 24 28.3964 24 28.3967 24C28.3971 24 28.3974 24 28.3977 24C28.3981 24 28.3984 24 28.3987 24C28.399 24 28.3994 24 28.3997 24C28.4 24 28.4003 24 28.4007 24C28.401 24 28.4013 24 28.4017 24C28.402 24 28.4023 24 28.4026 24C28.403 24 28.4033 24 28.4036 24C28.4039 24 28.4043 24 28.4046 24C28.4049 24 28.4053 24 28.4056 24C28.4059 24 28.4062 24 28.4066 24C28.4069 24 28.4072 24 28.4075 24C28.4079 24 28.4082 24 28.4085 24C28.4089 24 28.4092 24 28.4095 24C28.4098 24 28.4102 24 28.4105 24C28.4108 24 28.4111 24 28.4115 24C28.4118 24 28.4121 24 28.4124 24C28.4128 24 28.4131 24 28.4134 24C28.4138 24 28.4141 24 28.4144 24C28.4147 24 28.4151 24 28.4154 24C28.4157 24 28.416 24 28.4164 24C28.4167 24 28.417 24 28.4174 24C28.4177 24 28.418 24 28.4183 24C28.4187 24 28.419 24 28.4193 24C28.4196 24 28.42 24 28.4203 24C28.4206 24 28.4209 24 28.4213 24C28.4216 24 28.4219 24 28.4222 24C28.4226 24 28.4229 24 28.4232 24C28.4235 24 28.4239 24 28.4242 24C28.4245 24 28.4249 24 28.4252 24C28.4255 24 28.4258 24 28.4262 24C28.4265 24 28.4268 24 28.4271 24C28.4275 24 28.4278 24 28.4281 24C28.4284 24 28.4288 24 28.4291 24C28.4294 24 28.4297 24 28.4301 24C28.4304 24 28.4307 24 28.431 24C28.4314 24 28.4317 24 28.432 24C28.4323 24 28.4327 24 28.433 24C28.4333 24 28.4337 24 28.434 24C28.4343 24 28.4346 24 28.435 24C28.4353 24 28.4356 24 28.4359 24C28.4363 24 28.4366 24 28.4369 24C28.4372 24 28.4376 24 28.4379 24C28.4382 24 28.4385 24 28.4389 24C28.4392 24 28.4395 24 28.4398 24C28.4402 24 28.4405 24 28.4408 24C28.4411 24 28.4415 24 28.4418 24C28.4421 24 28.4424 24 28.4428 24C28.4431 24 28.4434 24 28.4437 24C28.4441 24 28.4444 24 28.4447 24C28.445 24 28.4454 24 28.4457 24C28.446 24 28.4463 24 28.4467 24C28.447 24 28.4473 24 28.4476 24C28.448 24 28.4483 24 28.4486 24C28.4489 24 28.4493 24 28.4496 24C28.4499 24 28.4502 24 28.4506 24C28.4509 24 28.4512 24 28.4515 24C28.4519 24 28.4522 24 28.4525 24C28.4528 24 28.4531 24 28.4535 24C28.4538 24 28.4541 24 28.4544 24C28.4548 24 28.4551 24 28.4554 24C28.4557 24 28.4561 24 28.4564 24C28.4567 24 28.457 24 28.4574 24C28.4577 24 28.458 24 28.4583 24C28.4587 24 28.459 24 28.4593 24C28.4596 24 28.46 24 28.4603 24C28.4606 24 28.4609 24 28.4613 24C28.4616 24 28.4619 24 28.4622 24C28.4625 24 28.4629 24 28.4632 24C28.4635 24 28.4638 24 28.4642 24C28.4645 24 28.4648 24 28.4651 24C28.4655 24 28.4658 24 28.4661 24C28.4664 24 28.4668 24 28.4671 24C28.4674 24 28.4677 24 28.4681 24C28.4684 24 28.4687 24 28.469 24C28.4693 24 28.4697 24 28.47 24C28.4703 24 28.4706 24 28.471 24C28.4713 24 28.4716 24 28.4719 24C28.4723 24 28.4726 24 28.4729 24C28.4732 24 28.4735 24 28.4739 24C28.4742 24 28.4745 24 28.4748 24C28.4752 24 28.4755 24 28.4758 24C28.4761 24 28.4765 24 28.4768 24C28.4771 24 28.4774 24 28.4777 24C28.4781 24 28.4784 24 28.4787 24C28.479 24 28.4794 24 28.4797 24C28.48 24 28.4803 24 28.4807 24C28.481 24 28.4813 24 28.4816 24C28.4819 24 28.4823 24 28.4826 24C28.4829 24 28.4832 24 28.4836 24C28.4839 24 28.4842 24 28.4845 24C28.4849 24 28.4852 24 28.4855 24C28.4858 24 28.4861 24 28.4865 24C28.4868 24 28.4871 24 28.4874 24C28.4878 24 28.4881 24 28.4884 24C28.4887 24 28.489 24 28.4894 24C28.4897 24 28.49 24 28.4903 24C28.4907 24 28.491 24 28.4913 24C28.4916 24 28.4919 24 28.4923 24C28.4926 24 28.4929 24 28.4932 24C28.4936 24 28.4939 24 28.4942 24C28.4945 24 28.4948 24 28.4952 24C28.4955 24 28.4958 24 28.4961 24C28.4964 24 28.4968 24 28.4971 24C28.4974 24 28.4977 24 28.4981 24C28.4984 24 28.4987 24 28.499 24V22ZM27.9824 22H14.7979V24H27.9824V22ZM14.7979 22C14.4989 22 14.2893 21.9636 14.1483 21.9165L13.5158 23.8139C13.9138 23.9466 14.3481 24 14.7979 24V22ZM14.2128 21.9406C14.0194 21.8609 13.8797 21.7801 13.7807 21.7059L12.5807 23.3059C12.841 23.5011 13.1355 23.6599 13.4513 23.7899L14.2128 21.9406ZM13.8139 21.7319C13.7087 21.6459 13.6401 21.5692 13.5956 21.5056L11.9571 22.6526C12.1223 22.8885 12.3232 23.0963 12.5474 23.2798L13.8139 21.7319ZM13.6339 21.5646C13.5535 21.4306 13.4918 21.3188 13.4462 21.2276L11.6573 22.122C11.7315 22.2703 11.8196 22.4281 11.9189 22.5936L13.6339 21.5646ZM13.4177 21.1747L10.071 15.3798L8.33912 16.38L11.6858 22.1749L13.4177 21.1747Z" fill="#6F1FEF"/>
</svg>
