<svg width="64" height="64" viewBox="0 0 64 64" fill="none" xmlns="http://www.w3.org/2000/svg">
<circle opacity="0.6" cx="32" cy="32" r="30.5" stroke="#DB00FF" stroke-width="3"/>
<path d="M28.2344 37.3281L25.4375 42.7188C25.3438 42.8958 25.2552 43.0625 25.1719 43.2188C25.0885 43.3646 24.9896 43.5 24.875 43.625C24.7708 43.7396 24.6458 43.8333 24.5 43.9062C24.3542 43.9688 24.1771 44 23.9688 44H22.1719C22.0156 44 21.8854 43.9635 21.7812 43.8906C21.6875 43.8073 21.6406 43.6875 21.6406 43.5312C21.6406 43.3438 21.724 43.1042 21.8906 42.8125L26.7656 34.0938L21.9219 23.3906C21.7969 23.1094 21.7344 22.8594 21.7344 22.6406C21.7344 22.276 21.849 22.0052 22.0781 21.8281C22.3177 21.651 22.5625 21.5625 22.8125 21.5625H31.6875C31.9479 21.5625 32.1667 21.599 32.3438 21.6719C32.5312 21.7344 32.6823 21.8125 32.7969 21.9062C32.9219 22 33.0156 22.1042 33.0781 22.2188C33.151 22.3229 33.2083 22.4167 33.25 22.5L35.1875 26.7812L37.2188 22.8438C37.3125 22.6771 37.401 22.5156 37.4844 22.3594C37.5677 22.2031 37.6615 22.0677 37.7656 21.9531C37.8802 21.8281 38.0104 21.7344 38.1562 21.6719C38.3021 21.599 38.4792 21.5625 38.6875 21.5625H40.4844C40.651 21.5625 40.7812 21.6042 40.875 21.6875C40.9792 21.7604 41.0312 21.875 41.0312 22.0312C41.0312 22.2083 40.9427 22.4479 40.7656 22.75L36.6719 30.0781L42.1719 42.1719C42.2969 42.4531 42.3594 42.7031 42.3594 42.9219C42.3594 43.099 42.3229 43.2552 42.25 43.3906C42.1875 43.526 42.1042 43.6406 42 43.7344C41.8958 43.8177 41.7812 43.8854 41.6562 43.9375C41.5312 43.9792 41.4062 44 41.2812 44H32.4219C32.151 44 31.9271 43.9688 31.75 43.9062C31.5729 43.8333 31.4219 43.75 31.2969 43.6562C31.1823 43.5625 31.0885 43.4635 31.0156 43.3594C30.9427 43.2552 30.8854 43.1615 30.8438 43.0781L28.2344 37.3281Z" fill="url(#paint0_linear_13_165)"/>
<defs>
<linearGradient id="paint0_linear_13_165" x1="32" y1="0" x2="32" y2="64" gradientUnits="userSpaceOnUse">
<stop stop-color="#9200B0"/>
<stop offset="1" stop-color="#FF8300"/>
</linearGradient>
</defs>
</svg>
