<svg width="64" height="64" viewBox="0 0 64 64" fill="none" xmlns="http://www.w3.org/2000/svg">
<circle opacity="0.6" cx="32" cy="32" r="30.5" stroke="#00FF85" stroke-width="3"/>
<path d="M26.5156 32.125L22.5469 23.3906C22.4844 23.2448 22.4427 23.1146 22.4219 23C22.401 22.8854 22.3906 22.7708 22.3906 22.6562C22.3906 22.2917 22.5052 22.0208 22.7344 21.8438C22.9635 21.6562 23.2031 21.5625 23.4531 21.5625H31.9844C32.2448 21.5625 32.4688 21.599 32.6562 21.6719C32.8438 21.7344 33 21.8125 33.125 21.9062C33.25 22 33.3438 22.1042 33.4062 22.2188C33.4792 22.3229 33.5312 22.4167 33.5625 22.5L36.3125 30.0469L38.8125 22.8438C38.875 22.6667 38.9323 22.5 38.9844 22.3438C39.0469 22.1875 39.1146 22.0521 39.1875 21.9375C39.2708 21.8229 39.3698 21.7344 39.4844 21.6719C39.599 21.599 39.75 21.5625 39.9375 21.5625H41.375C41.5208 21.5625 41.6458 21.5938 41.75 21.6562C41.8542 21.7188 41.9062 21.8229 41.9062 21.9688C41.9062 22.1667 41.8438 22.4271 41.7188 22.75L38.1719 31.7812V41.8125C38.1719 42.1771 38.1354 42.4948 38.0625 42.7656C37.9896 43.0365 37.8646 43.2656 37.6875 43.4531C37.5208 43.6302 37.2917 43.7656 37 43.8594C36.7188 43.9531 36.3594 44 35.9219 44H28.5469C28.1406 44 27.8073 43.9531 27.5469 43.8594C27.2865 43.7656 27.0781 43.6302 26.9219 43.4531C26.776 43.276 26.6719 43.0521 26.6094 42.7812C26.5469 42.5104 26.5156 42.1927 26.5156 41.8281V32.125Z" fill="url(#paint0_linear_13_166)"/>
<defs>
<linearGradient id="paint0_linear_13_166" x1="32" y1="0" x2="32" y2="64" gradientUnits="userSpaceOnUse">
<stop stop-color="#FFF500"/>
<stop offset="1" stop-color="#00EB17"/>
</linearGradient>
</defs>
</svg>
