<svg width="51" height="50" viewBox="0 0 51 50" fill="none" xmlns="http://www.w3.org/2000/svg">
<circle opacity="0.6" cx="26" cy="25" r="23.5" stroke="#6F1FEF" stroke-width="3"/>
<path d="M17.0312 21.5156C17.0312 21.3385 17.0677 21.2083 17.1406 21.125C17.2135 21.0417 17.3698 21 17.6094 21H32.7031C33.099 21 33.375 21.0469 33.5312 21.1406C33.6875 21.2344 33.7656 21.401 33.7656 21.6406C33.7656 21.9323 33.6719 22.25 33.4844 22.5938L27.25 34.7969C28.2188 34.7656 29.1042 34.7344 29.9062 34.7031C30.25 34.6927 30.5885 34.6823 30.9219 34.6719C31.2656 34.651 31.5833 34.6354 31.875 34.625C32.1667 34.6146 32.4167 34.6094 32.625 34.6094C32.8333 34.599 32.9792 34.5938 33.0625 34.5938C33.2396 34.5938 33.4062 34.6302 33.5625 34.7031C33.7188 34.7656 33.7969 34.901 33.7969 35.1094V36.2344C33.7969 36.4219 33.7344 36.599 33.6094 36.7656C33.4948 36.9219 33.2604 37 32.9062 37H17.2031C16.901 37 16.6771 36.9375 16.5312 36.8125C16.3854 36.6771 16.3125 36.526 16.3125 36.3594C16.3125 36.151 16.349 35.9479 16.4219 35.75C16.5052 35.5521 16.6354 35.2865 16.8125 34.9531L22.875 23.1875C22.0625 23.2292 21.3073 23.2656 20.6094 23.2969C20.3073 23.3177 20.0052 23.3333 19.7031 23.3438C19.401 23.3542 19.1094 23.3646 18.8281 23.375C18.5573 23.3854 18.3125 23.3958 18.0938 23.4062C17.875 23.4062 17.7031 23.4062 17.5781 23.4062C17.4531 23.4062 17.3281 23.3802 17.2031 23.3281C17.0885 23.2656 17.0312 23.1302 17.0312 22.9219V21.5156Z" fill="url(#paint0_linear_13_163)"/>
<defs>
<linearGradient id="paint0_linear_13_163" x1="25" y1="0" x2="25" y2="50" gradientUnits="userSpaceOnUse">
<stop stop-color="#6F1FEF"/>
<stop offset="1" stop-color="#900CBE"/>
</linearGradient>
</defs>
</svg>
